/* XPM */
static char *noname[] = {
/* width height ncolors chars_per_pixel */
"24 24 47 1",
/* colors */
"  c #000000",
". c #A5A563",
"X c #BDBD00",
"o c #A5A5A5",
"O c #737300",
"+ c #9C9C7B",
"@ c #949473",
"# c #9C9C00",
"$ c #E7E739",
"% c #7B7B00",
"& c #E7E700",
"* c #B5B55A",
"= c #313100",
"- c #E7E731",
"; c #5A5A00",
": c #FFFF10",
"> c #101000",
", c #B5B563",
"< c #EFEF00",
"1 c #CECECE",
"2 c #A5A500",
"3 c #CECE00",
"4 c #181800",
"5 c #848400",
"6 c #9C9C9C",
"7 c #F7F700",
"8 c #8C8C8C",
"9 c #636300",
"0 c #848473",
"q c #F7F731",
"w c #D6D600",
"e c #8C8C00",
"r c #9C9C94",
"t c #424200",
"y c #FFFFFF",
"u c #DEDE39",
"i c #B5B500",
"p c #EFEFEF",
"a c #E7E7E7",
"s c #6B6B00",
"d c #94947B",
"f c #212100",
"g c #A5A59C",
"h c #DEDE42",
"j c #949400",
"k c #F7F718",
"l c #B5B5B5",
/* pixels */
"yyyyyyyyyyyyyyyyyyyyyyyy",
"yyyyyyyyyyyyapyyyyyyyyyy",
"yyyyyyyyyyy10gpyyyyyyyyy",
"yyyyyyyyyy1@h*rpyyyyyyyy",
"yyyyyyyyya0h7k,opyyyyyyy",
"yyyyyyyy10q7777,gpyyyyyy",
"yyyyyyy1@u77&<7k*opyyyyy",
"yyyyyy1du77i=9&7:*opyyyy",
"yyyyy1@$777O 4i77:*6pyyy",
"yyyya0h7777O 4i777k,opyy",
"yyy10q77777#>=w77777,gpy",
"yy1@u777777i>t&77777k*op",
"ya0h777777734;&777777k.l",
"ypo*k777777&4s<777777ud1",
"yypg,777777&9e777777-@1y",
"yyypo,k7777w%j&7777-81yy",
"yyyypg*:7775 fX777u@1yyy",
"yyyyypo*:772ftw77$+1yyyy",
"yyyyyypo*k77w&77u+1yyyyy",
"yyyyyyypg,77777-@1yyyyyy",
"yyyyyyyypo,k77-81yyyyyyy",
"yyyyyyyyypg*:u@1yyyyyyyy",
"yyyyyyyyyypo.d1yyyyyyyyy",
"yyyyyyyyyyypl1yyyyyyyyyy"
};
