/* XPM */
static char *noname[] = {
/* width height ncolors chars_per_pixel */
"35 15 19 1",
/* colors */
"  c #84BD84",
". c #73BD73",
"X c #63AD63",
"o c #4AA54A",
"O c #C6DEC6",
"+ c #B5DEB5",
"@ c #A5CEA5",
"# c #94CE94",
"$ c #8CC68C",
"% c #429C42",
"& c #319C31",
"* c #299429",
"= c #FFFFFF",
"- c #218C21",
"; c #EFF7EF",
": c #108C10",
"> c #E7EFE7",
", c #D6EFD6",
"< c #CEE7CE",
/* pixels */
"===================================",
"===================================",
"===================================",
"==>+O<=<O+>========================",
"===X*==;*.=========================",
"=== %===% ===<<===<;<<=>+===;+;====",
"=== %===% ==%@@&=>-o : .* =,%O&>===",
"=== -   - =+X==X@=%+=  =+%=.+= $===",
"=== %===% =  ==  =%+=  =O%=%X  +===",
"=== %===% =@.==.@=%+=  =+%=X@======",
"===.*;==*.=>%,>%>=*+=..=+*=O*;>#===",
"==>+O<=<O+>=>$$>=,O+;+O>O+>=O @====",
"===================================",
"===================================",
"==================================="
};
