/* XPM */
static char *noname[] = {
/* width height ncolors chars_per_pixel */
"24 24 76 1",
/* colors */
"  c #000000",
". c #A5A563",
"X c #ADADAD",
"o c #E7E708",
"O c #A5A5A5",
"+ c #9C9C7B",
"@ c #636318",
"# c #D6D66B",
"$ c #BDBD84",
"% c #D6D618",
"& c #A5A594",
"* c #8C8C18",
"= c #ADAD21",
"- c #7B7B7B",
"; c #E7E77B",
": c #6B6B6B",
"> c #ADADA5",
", c #636363",
"< c #D6D663",
"1 c #636352",
"2 c #FFFF21",
"3 c #D6D652",
"4 c #E7E731",
"5 c #393939",
"6 c #FFFF10",
"7 c #DEDEDE",
"8 c #292929",
"9 c #D6D6D6",
"0 c #DEDE21",
"q c #EFEF00",
"w c #BDBD5A",
"e c #CECECE",
"r c #B5B552",
"t c #C6C6C6",
"y c #EFEF42",
"u c #BDBD9C",
"i c #ADAD8C",
"p c #EFEF31",
"a c #A5A584",
"s c #9C9C5A",
"d c #ADAD39",
"f c #E7E729",
"g c #ADAD7B",
"h c #FFFF08",
"j c #949494",
"k c #8C8C8C",
"l c #848484",
"z c #8C8C39",
"x c #5A5A29",
"c c #B5B54A",
"v c #737352",
"b c #CECE73",
"n c #9C9C63",
"m c #8C8C7B",
"M c #C6C65A",
"N c #525252",
"B c #E7E763",
"V c #FFFFFF",
"C c #FFFF00",
"Z c #DEDE39",
"A c #BDBD08",
"S c #F7F7F7",
"D c #424242",
"F c #EFEFEF",
"G c #E7E7E7",
"H c #424231",
"J c #6B6B42",
"K c #A5A59C",
"L c #DEDE00",
"P c #181818",
"I c #101010",
"U c #BDBDBD",
"Y c #ADAD6B",
"T c #B5B5B5",
"R c #DEDE31",
"E c #EFEF10",
/* pixels */
"VVVVVVVVVVGGGGGVVVVVVVVV",
"VVVVVVVGtOjOOOjOeSVVVVVV",
"VVVVVSUkaREEEEEu+keVVVVV",
"VVVVGj.BCCCCCCCCC3sOSVVV",
"VVVSj$ECCCCCCCCCCCEgTVVV",
"VVSj$CCCCCqzvLCCCCCCnTVV",
"VVeYECCCCCz  xECCCCCE.7V",
"VGKBCCCCCC,  5RCCCCCC3>V",
"VeiCCCCCCCl  NpCCCCCCC+G",
"VOZCCCCCCC=  @6CCCCCCCie",
"GOECCCCCCCAI *CCCCCCCCoj",
"GOECCCCCCC%8IdCCCCCCCCoj",
"GOECCCCCCC05IcCCCCCCCCoj",
"GOECCCCCCCfDP<CCCCCCCCoj",
"GOECCCCCCCyk:;CCCCCCCCoO",
"VTRCCCCCCC4zv%6CCCCCCCie",
"V9aCCCCCCC-  N4CCCCCCy&G",
"VSK3CCCCCCv  H0CCCCChwTV",
"VV9.ECCCCCLJ1ACCCCCC#OFV",
"VVVOgCCCCCC2pCCCCCCCkeVV",
"VVVVOnECCCCCCCCCCh#leVVV",
"VVVVVOsMyCCCCCCCyrjtVVVV",
"VVVVVV9Omioooob+mXGVVVVV",
"VVVVVVVVGtjjjjOeGVVVVVVV"
};
