/* XPM */
static char *noname[] = {
/* width height ncolors chars_per_pixel */
"35 15 20 1",
/* colors */
"  c #84BD84",
". c #6BB56B",
"X c #63AD63",
"o c #52AD52",
"O c #4AA54A",
"+ c #C6DEC6",
"@ c #B5DEB5",
"# c #ADD6AD",
"$ c #A5CEA5",
"% c #94CE94",
"& c #8CC68C",
"* c #429C42",
"= c #319C31",
"- c #FFFFFF",
"; c #218C21",
": c #108C10",
"> c #E7EFE7",
", c #008400",
"< c #D6EFD6",
"1 c #CEE7CE",
/* pixels */
"-----------------------------------",
"-----------------------------------",
"-----------------------------------",
"-----+@>--<+@>---------------------",
"-----<=:>--  ------------.1--------",
"------ ==--@+--<+--------*+--------",
"------ >;.-+@-@o@=>o:-X%$;o$-------",
"------ -1:#@+-=>-*1-=  --*+--------",
"------ --#:%+-,   <-+,+--*+--------",
"------ ---o,+-;<----  =--*+--------",
"----->O+---=@- o-<+#@-=&-* 1-------",
"-----1+@>-->>--$ +>+1>+@>1 +-------",
"-----------------------------------",
"-----------------------------------",
"-----------------------------------"
};
