/* XPM */
static char *noname[] = {
/* width height ncolors chars_per_pixel */
"24 24 20 1",
/* colors */
"  c #A5A5A5",
". c #7B7B7B",
"X c #737373",
"o c #6B6B6B",
"O c #636363",
"+ c #DEDEDE",
"@ c #D6D6D6",
"# c #CECECE",
"$ c #C6C6C6",
"% c #949494",
"& c #8C8C8C",
"* c #848484",
"= c #5A5A5A",
"- c #525252",
"; c #FFFFFF",
": c #4A4A4A",
"> c #EFEFEF",
", c #E7E7E7",
"< c #BDBDBD",
"1 c #B5B5B5",
/* pixels */
";;;;;;;;;;,,,,,;;;;;;;;;",
";;;;;;;;< %   % #;;;;;;;",
";;;;;>$& @,>>>,$%%#;;;;;",
";;;;,% +;;;;;;;;;#%1;;;;",
";;;> 1;;;;;;;;;;;;> <;;;",
";;>%<;;;;;;;;;;;;;;;%<;;",
";;# ;;;;;;;;;;;;;;;;> +;",
";; +;;;;;;;;;;;;;;;;;# ;",
";# ;;;;;$<1<1<+,,,,,;; ,",
"; +>@@ &1#+@#&*    %%,1#",
", ,%%1#;;,#%$#X<+++@%#+%",
", @%,;;;>%O=:-.%<11<$>,%",
"+ @%,;;;<.#++ %;>;>;;;+%",
", +&,;;>%X%1<& ;;;;;;;,%",
", +%. >>o.@#$.+;;;;;;;, ",
";1@;;1%#o<&XO<;;;;;;;; #",
";@ ;;>$.-X%*$;;;;;;;;> >",
";; #;;;+,+,+;;;;;;;;;<<;",
";;@ ,;;;;;;;;;;;;;;;# >;",
";;;1 ;;;;;;;;;;;;;;;&#;;",
";;;;<%>;;;;;;;;;;;#&#;;;",
";;;;;1%$>;;;;;;;,1%$;;;;",
";;;;;;@ & ++,+# &1,;;;;;",
";;;;;;;;+#%%%% #>;;;;;;;"
};
