/* XPM */
static char *noname[] = {
/* width height ncolors chars_per_pixel */
"25 24 20 1",
/* colors */
"  c #000000",
". c #A5A5A5",
"X c #7B7B7B",
"o c #737373",
"O c #6B6B6B",
"+ c #636363",
"@ c #393939",
"# c #DEDEDE",
"$ c #212121",
"% c #CECECE",
"& c #C6C6C6",
"* c #949494",
"= c #8C8C8C",
"- c #5A5A5A",
"; c #FFFFFF",
": c #F7F7F7",
"> c #E7E7E7",
", c #101010",
"< c #BDBDBD",
"1 c #B5B5B5",
/* pixels */
";;;;;;;;;;>>>>>;;;;;;;;;;",
";;;;;;;>&.*...*.%:;;;;;;;",
";;;;;:<*.%>:>:>&**%;;;;;;",
";;;;>*.#;;;;;;;;;%*.;;;;;",
";;;:*<:;;;;;;;;;;;>.1;;;;",
";;:*<;;;;;;>.>;;;;;;*<;;;",
";;%.:;;;;;:X$O>;;;;;>.#;;",
";>.>;;;;;;:o,->;;;;;;%.;;",
";%1;;;;;;;;#.#;;;;;;;:*>;",
";.#;;;;;;;=XX1;;;;;;;;1%;",
">.:;;;;;;;$  O:;;;;;;;>*;",
">.:;;;;;;;*@ O:;;;;;;;>*;",
">.>;;;;;;;:+ O:;;;;;;;>*;",
">.:;;;;;;;:+ O:;;;;;;;>*;",
">.>;;;;;;;:+ O:;;;;;;;#*;",
";1%;;;;;;;:+ O:;;;;;;;.%;",
";#.;;;;;;;:+ O:;;;;;;>.>;",
";:.%;;;;;;:+ O:;;;;;;<<;;",
";;#.>;;;;;:o$X:;;;;;%.>;;",
";;;..;;;;;;#&%;;;;;;=%;;;",
";;;;1*>;;;;;;;;;;;%=%;;;;",
";;;;;.*&:;;;;;;;>1*&;;;;;",
";;;;;;#*=.#>>>%**.>;;;;;;",
";;;;;;;;>%****.%>;;;;;;;;"
};
