/* XPM */
static char *noname[] = {
/* width height ncolors chars_per_pixel */
"15 9 3 1",
/* colors */
"  c #000000",
". c #848484",
"X c #FFFFFF",
/* pixels */
".........XXXXXX",
".XXXXXXX.XXXXXX",
".XXX XXX.XXXXXX",
".XXX XXX.XXXXXX",
".X     X.X.X.X.",
".XXX XXX.XXXXXX",
".XXX XXX.XXXXXX",
".XXXXXXX.XXXXXX",
".........XXXXXX"
};
