/* XPM */
static char *noname[] = {
/* width height ncolors chars_per_pixel */
"15 9 2 1",
/* colors */
"  c #808080",
". c #FFFFFF",
/* pixels */
".... ..........",
"...............",
".... ..........",
"...............",
".... . . . . . ",
"...............",
".... ..........",
"...............",
".... .........."
};
