/* XPM */
static char *noname[] = {
/* width height ncolors chars_per_pixel */
"35 15 18 1",
/* colors */
"  c #84BD84",
". c #6BB56B",
"X c #63AD63",
"o c #C6DEC6",
"O c #B5DEB5",
"+ c #94CE94",
"@ c #8CC68C",
"# c #429C42",
"$ c #319C31",
"% c #299429",
"& c #FFFFFF",
"* c #218C21",
"= c #EFF7EF",
"- c #108C10",
"; c #E7EFE7",
": c #008400",
"> c #D6EFD6",
", c #CEE7CE",
/* pixels */
"&&&&&&&&&&&&&&&&&&&&&&&&&&&&&&&&&&&",
"&&&&&&&&&&&&&&&&&&&&&&&&&&&&&&&&&&&",
"&&&&&&&&&&&;Oo,&,oO=&&&&&&&&&&&&&&&",
"&&&&&&&&&&&&X%&&=$>&&&&&&&&&&&&&&&&",
"&&&&&&&&&&&& #&&& &&>;,;&&&&&&&&&&&",
"&&&&&&&&&&&& #&&& &>#XO#O&&&&&&&&&&",
"&&&&&&&&&&&& #&&& &&  &;*&&&&&&&&&&",
"&&&&&&&&&&&& #&&& &&  &&:&&&&&&&&&&",
"&&&&&&&&&&&& #&&&@&&  &;*&&&&&&&&&&",
"&&&&&&&&&&&&;-o&o+&& $;.+&&&&&&&&&&",
"&&&&&&&&&&&&&=@ o&&& X O&&&&&&&&&&&",
"&&&&&&&&&&&&&&&&&&&&  &&&&&&&&&&&&&",
"&&&&&&&&&&&&&&&&&&&>..>&&&&&&&&&&&&",
"&&&&&&&&&&&&&&&&&&&&&&&&&&&&&&&&&&&",
"&&&&&&&&&&&&&&&&&&&&&&&&&&&&&&&&&&&"
};
