/* XPM */
static char *noname[] = {
/* width height ncolors chars_per_pixel */
"24 24 54 1",
/* colors */
"  c #A5A5A5",
". c #4A0000",
"X c #A58484",
"o c #940000",
"O c #C61010",
"+ c #A50000",
"@ c #DE0000",
"# c #080000",
"$ c #520000",
"% c #B52929",
"& c #AD0000",
"* c #F70000",
"= c #DEDEDE",
"- c #947B7B",
"; c #100000",
": c #D6D6D6",
"> c #BDADAD",
", c #B5A5A5",
"< c #210000",
"1 c #5A0000",
"2 c #C6C6C6",
"3 c #A53939",
"4 c #6B0000",
"5 c #CE2929",
"6 c #B50000",
"7 c #C60000",
"8 c #9C7B7B",
"9 c #180000",
"0 c #9C5A5A",
"q c #290000",
"w c #A59494",
"e c #730000",
"r c #840000",
"t c #D62929",
"y c #BD0000",
"u c #CE0000",
"i c #FFFFFF",
"p c #B59C9C",
"a c #F7F7F7",
"s c #9C5252",
"d c #310000",
"f c #AD9494",
"g c #EFEFEF",
"h c #420000",
"j c #7B0000",
"k c #AD3131",
"l c #A54A4A",
"z c #8C0000",
"x c #C61818",
"c c #D60000",
"v c #EF0808",
"b c #E72121",
"n c #E70000",
"m c #B5B5B5",
/* pixels */
"iiiiiii=:::::::::giiiiii",
"iiiiii2s%k%k%k%kkfgiiiii",
"iiiiimlv*********xfgiiii",
"iiig23v***********xXgiii",
"iii20v*************x gii",
"iim3v******6oc******xXgi",
"i2lv******yq;1v******xfg",
"=sv*******o;;qc*******x,",
":k********&9;h@*******v-",
":%********7<#$v*******v-",
":k********@d;e********v-",
":%********n.;z********v-",
":k*********$;+********v-",
":%*********49&********v-",
":k*********yrc********v-",
":%********nj$&********v-",
"=k********&;;h@*******5w",
"gpx*******6<;.n******t8=",
"igpx*******6ru******tX=i",
"iigfO**************b-=ii",
"iiiamO************t-giii",
"iiiigfx**********tX=iiii",
"iiiiigpxvnvnvnvn5-=iiiii",
"iiiiiia>88888888w=iiiiii"
};
